STARTFONT 2.1
COMMENT $XConsortium: luIS18.bdf,v 1.7 94/04/02 15:59:54 gildea Exp $
COMMENT  (c) Copyright Bigelow & Holmes 1986, 1985. Lucida is a registered
COMMENT  trademark of Bigelow & Holmes. See LEGAL NOTICE file for terms 
COMMENT  of the license. 
COMMENT GRID 0018 0018 0200 0200
COMMENT  
COMMENT  Translation to ISO8859-2 by Cub Soft;  Petr.Kolar@vslib.cz
COMMENT  
FONT -B&H-Lucida-Medium-I-Normal-Sans-18-180-75-75-P-105-ISO8859-2
SIZE 18 72 72
FONTBOUNDINGBOX 24 19 -3 -3
STARTPROPERTIES 20
COMMENT Begin LogicalFontDescription
FONTNAME_REGISTRY ""
FOUNDRY "B&H"
FAMILY_NAME "Lucida"
WEIGHT_NAME "Medium"
SLANT "I"
SETWIDTH_NAME "Normal"
ADD_STYLE_NAME "Sans"
PIXEL_SIZE 18
POINT_SIZE 180
RESOLUTION_X 75
RESOLUTION_Y 75
SPACING "P"
AVERAGE_WIDTH 105
CHARSET_REGISTRY "ISO8859"
CHARSET_ENCODING "2"
COMMENT END LogicalFontDescription
FONT_ASCENT 16
FONT_DESCENT 3
DEFAULT_CHAR 0
COPYRIGHT "Copyright Bigelow & Holmes 1986, 1985., Copyright 1996 Cub Soft"
FACE_NAME "Lucida Sans Italic"
ENDPROPERTIES
CHARS 191
STARTCHAR space
ENCODING 32
SWIDTH 316 0
DWIDTH 5 0
BBX 1 1 0 0
BITMAP
00
ENDCHAR
STARTCHAR exclam
ENCODING 33
SWIDTH 193 0
DWIDTH 4 0
BBX 4 13 1 0
BITMAP
30
30
30
30
60
60
60
40
40
00
00
c0
c0
ENDCHAR
STARTCHAR quotedbl
ENCODING 34
SWIDTH 361 0
DWIDTH 7 0
BBX 5 4 2 10
BITMAP
d8
d8
90
90
ENDCHAR
STARTCHAR numbersign
ENCODING 35
SWIDTH 633 0
DWIDTH 12 0
BBX 11 13 1 0
BITMAP
0660
0660
0cc0
7fe0
1980
1980
3300
3300
ffc0
6600
6600
cc00
cc00
ENDCHAR
STARTCHAR dollar
ENCODING 36
SWIDTH 633 0
DWIDTH 12 0
BBX 10 15 1 -1
BITMAP
0100
0f80
1140
3100
3200
3a00
1e00
0f00
0b80
0980
0980
1180
d300
7e00
1000
ENDCHAR
STARTCHAR percent
ENCODING 37
SWIDTH 741 0
DWIDTH 14 0
BBX 13 13 1 0
BITMAP
3818
4c30
cc60
ccc0
cd80
c900
7270
0498
0d98
1998
3198
6190
c0e0
ENDCHAR
STARTCHAR ampersand
ENCODING 38
SWIDTH 701 0
DWIDTH 13 0
BBX 11 13 1 0
BITMAP
0780
18c0
18c0
1980
0e00
1c00
6660
4660
c340
c380
c180
e2c0
7cc0
ENDCHAR
STARTCHAR apostrophe
ENCODING 39
SWIDTH 217 0
DWIDTH 4 0
BBX 3 4 2 10
BITMAP
60
60
40
80
ENDCHAR
STARTCHAR parenleft
ENCODING 40
SWIDTH 325 0
DWIDTH 6 0
BBX 5 16 2 -2
BITMAP
08
10
30
20
60
60
c0
c0
c0
c0
c0
c0
c0
c0
40
20
ENDCHAR
STARTCHAR parenright
ENCODING 41
SWIDTH 325 0
DWIDTH 6 0
BBX 5 16 0 -2
BITMAP
20
10
18
18
18
18
18
18
18
18
30
30
20
60
40
80
ENDCHAR
STARTCHAR asterisk
ENCODING 42
SWIDTH 470 0
DWIDTH 9 0
BBX 6 7 2 6
BITMAP
10
10
94
cc
30
50
d8
ENDCHAR
STARTCHAR plus
ENCODING 43
SWIDTH 633 0
DWIDTH 12 0
BBX 9 9 2 1
BITMAP
0400
0400
0800
0800
ff80
0800
0800
1000
1000
ENDCHAR
STARTCHAR comma
ENCODING 44
SWIDTH 316 0
DWIDTH 4 0
BBX 3 4 0 -2
BITMAP
60
60
40
80
ENDCHAR
STARTCHAR minus
ENCODING 45
SWIDTH 633 0
DWIDTH 12 0
BBX 9 1 2 5
BITMAP
ff80
ENDCHAR
STARTCHAR period
ENCODING 46
SWIDTH 316 0
DWIDTH 4 0
BBX 2 2 1 0
BITMAP
c0
c0
ENDCHAR
STARTCHAR slash
ENCODING 47
SWIDTH 482 0
DWIDTH 9 0
BBX 11 16 -1 -2
BITMAP
0060
00c0
00c0
0180
0380
0300
0600
0600
0c00
0c00
1800
3800
3000
6000
6000
c000
ENDCHAR
STARTCHAR zero
ENCODING 48
SWIDTH 633 0
DWIDTH 12 0
BBX 10 13 2 0
BITMAP
0700
1980
30c0
60c0
60c0
c0c0
c0c0
c0c0
c180
c180
c300
6600
3800
ENDCHAR
STARTCHAR one
ENCODING 49
SWIDTH 633 0
DWIDTH 12 0
BBX 4 13 5 0
BITMAP
30
f0
30
30
30
60
60
60
60
c0
c0
c0
c0
ENDCHAR
STARTCHAR two
ENCODING 50
SWIDTH 633 0
DWIDTH 12 0
BBX 10 13 2 0
BITMAP
1f80
31c0
00c0
00c0
00c0
0180
0300
0e00
1800
3000
6000
ff80
ff80
ENDCHAR
STARTCHAR three
ENCODING 51
SWIDTH 633 0
DWIDTH 12 0
BBX 10 13 2 0
BITMAP
1f80
31c0
00c0
00c0
0180
0300
1e00
0300
0180
0180
0180
c300
7e00
ENDCHAR
STARTCHAR four
ENCODING 52
SWIDTH 633 0
DWIDTH 12 0
BBX 9 13 2 0
BITMAP
0180
0380
0580
0980
1180
2300
4300
ff80
ff80
0600
0600
0600
0600
ENDCHAR
STARTCHAR five
ENCODING 53
SWIDTH 633 0
DWIDTH 12 0
BBX 10 13 2 0
BITMAP
1fc0
1fc0
1000
2000
2000
3c00
0600
0300
0300
0300
0300
c600
7c00
ENDCHAR
STARTCHAR six
ENCODING 54
SWIDTH 633 0
DWIDTH 12 0
BBX 10 13 2 0
BITMAP
0780
18c0
3000
6000
6000
ce00
d300
e180
c180
c180
c300
6300
3c00
ENDCHAR
STARTCHAR seven
ENCODING 55
SWIDTH 633 0
DWIDTH 12 0
BBX 10 13 3 0
BITMAP
7fc0
7fc0
0180
0300
0600
0c00
1800
3000
6000
6000
c000
c000
c000
ENDCHAR
STARTCHAR eight
ENCODING 56
SWIDTH 633 0
DWIDTH 12 0
BBX 10 13 2 0
BITMAP
0780
19c0
30c0
30c0
3980
1e00
0f00
3300
6180
c180
c180
e300
7c00
ENDCHAR
STARTCHAR nine
ENCODING 57
SWIDTH 633 0
DWIDTH 12 0
BBX 9 13 3 0
BITMAP
1e00
6300
6180
c180
c180
c380
6580
3980
0300
0300
0600
cc00
7000
ENDCHAR
STARTCHAR colon
ENCODING 58
SWIDTH 316 0
DWIDTH 4 0
BBX 4 10 0 0
BITMAP
30
30
00
00
00
00
00
00
c0
c0
ENDCHAR
STARTCHAR semicolon
ENCODING 59
SWIDTH 316 0
DWIDTH 4 0
BBX 5 12 -1 -2
BITMAP
18
18
00
00
00
00
00
00
60
60
40
80
ENDCHAR
STARTCHAR less
ENCODING 60
SWIDTH 633 0
DWIDTH 12 0
BBX 9 9 2 1
BITMAP
0080
0300
0c00
3000
c000
6000
3000
0c00
0200
ENDCHAR
STARTCHAR equal
ENCODING 61
SWIDTH 633 0
DWIDTH 12 0
BBX 10 5 1 3
BITMAP
7fc0
0000
0000
0000
ff80
ENDCHAR
STARTCHAR greater
ENCODING 62
SWIDTH 633 0
DWIDTH 12 0
BBX 9 9 2 1
BITMAP
2000
1800
0600
0300
0180
0600
1800
6000
8000
ENDCHAR
STARTCHAR question
ENCODING 63
SWIDTH 464 0
DWIDTH 9 0
BBX 7 13 2 0
BITMAP
7c
ce
06
06
0c
18
30
60
40
00
00
c0
c0
ENDCHAR
STARTCHAR at
ENCODING 64
SWIDTH 858 0
DWIDTH 16 0
BBX 14 13 2 0
BITMAP
07e0
1c38
3008
63ec
4c64
cc64
98c4
99c4
dec8
4cf0
6000
3800
0f80
ENDCHAR
STARTCHAR A
ENCODING 65
SWIDTH 687 0
DWIDTH 12 0
BBX 10 13 1 0
BITMAP
0300
0300
0500
0d80
0980
1980
1180
3180
3fc0
60c0
60c0
c0c0
c0c0
ENDCHAR
STARTCHAR B
ENCODING 66
SWIDTH 593 0
DWIDTH 11 0
BBX 10 13 1 0
BITMAP
3f80
31c0
30c0
30c0
6180
6300
7e00
6300
6180
c180
c180
c300
fc00
ENDCHAR
STARTCHAR C
ENCODING 67
SWIDTH 679 0
DWIDTH 12 0
BBX 12 13 1 0
BITMAP
07e0
1830
3000
6000
6000
c000
c000
c000
c000
c000
6000
7040
1f80
ENDCHAR
STARTCHAR D
ENCODING 68
SWIDTH 743 0
DWIDTH 14 0
BBX 12 13 2 0
BITMAP
3f80
30e0
3060
3030
6030
6030
6030
6030
6060
c060
c0c0
c180
fe00
ENDCHAR
STARTCHAR E
ENCODING 69
SWIDTH 547 0
DWIDTH 10 0
BBX 9 13 2 0
BITMAP
3f80
3000
3000
3000
6000
6000
7e00
6000
6000
c000
c000
c000
fe00
ENDCHAR
STARTCHAR F
ENCODING 70
SWIDTH 536 0
DWIDTH 10 0
BBX 9 13 2 0
BITMAP
3f80
3000
3000
3000
6000
6000
7e00
6000
6000
c000
c000
c000
c000
ENDCHAR
STARTCHAR G
ENCODING 71
SWIDTH 702 0
DWIDTH 13 0
BBX 12 13 1 0
BITMAP
07e0
1830
3000
6000
6000
c000
c000
c060
c060
c060
60c0
70c0
1fc0
ENDCHAR
STARTCHAR H
ENCODING 72
SWIDTH 735 0
DWIDTH 14 0
BBX 12 13 2 0
BITMAP
3030
3030
3030
3030
6060
6060
7fe0
6060
6060
c0c0
c0c0
c0c0
c0c0
ENDCHAR
STARTCHAR I
ENCODING 73
SWIDTH 289 0
DWIDTH 6 0
BBX 4 13 1 0
BITMAP
30
30
30
30
60
60
60
60
60
c0
c0
c0
c0
ENDCHAR
STARTCHAR J
ENCODING 74
SWIDTH 408 0
DWIDTH 8 0
BBX 8 15 -1 -2
BITMAP
03
03
03
03
06
06
06
06
06
0c
0c
0c
08
18
f0
ENDCHAR
STARTCHAR K
ENCODING 75
SWIDTH 635 0
DWIDTH 12 0
BBX 10 13 2 0
BITMAP
30c0
30c0
3180
3300
6600
6c00
7800
6c00
6600
c600
c300
c180
c180
ENDCHAR
STARTCHAR L
ENCODING 76
SWIDTH 545 0
DWIDTH 10 0
BBX 8 13 2 0
BITMAP
30
30
30
30
60
60
60
60
60
c0
c0
c0
ff
ENDCHAR
STARTCHAR M
ENCODING 77
SWIDTH 828 0
DWIDTH 16 0
BBX 14 13 2 0
BITMAP
381c
381c
282c
2c2c
2c4c
4c98
4c98
4d18
4718
8630
8630
8030
8030
ENDCHAR
STARTCHAR N
ENCODING 78
SWIDTH 741 0
DWIDTH 14 0
BBX 11 13 2 0
BITMAP
3820
3820
2c20
2c20
2c60
6640
4640
4340
4340
c380
8180
8180
8180
ENDCHAR
STARTCHAR O
ENCODING 79
SWIDTH 777 0
DWIDTH 14 0
BBX 13 13 1 0
BITMAP
07c0
1870
3030
6018
6018
c018
c018
c018
c030
c030
6060
70c0
1f00
ENDCHAR
STARTCHAR P
ENCODING 80
SWIDTH 575 0
DWIDTH 11 0
BBX 10 13 1 0
BITMAP
3f80
31c0
30c0
30c0
60c0
6180
6300
7c00
6000
c000
c000
c000
c000
ENDCHAR
STARTCHAR Q
ENCODING 81
SWIDTH 777 0
DWIDTH 14 0
BBX 13 16 1 -3
BITMAP
07c0
1870
3030
6018
6018
c018
c018
c018
c030
c030
6060
70c0
1f00
0180
00e0
0038
ENDCHAR
STARTCHAR R
ENCODING 82
SWIDTH 632 0
DWIDTH 12 0
BBX 10 13 2 0
BITMAP
3f80
31c0
30c0
30c0
6180
6300
7c00
6600
6600
c300
c300
c180
c1c0
ENDCHAR
STARTCHAR S
ENCODING 83
SWIDTH 553 0
DWIDTH 10 0
BBX 9 13 1 0
BITMAP
1f00
3980
3000
3000
1800
1c00
0e00
0600
0300
0300
0300
c600
7c00
ENDCHAR
STARTCHAR T
ENCODING 84
SWIDTH 623 0
DWIDTH 12 0
BBX 12 13 1 0
BITMAP
fff0
0600
0600
0600
0c00
0c00
0c00
0c00
0c00
1800
1800
1800
1800
ENDCHAR
STARTCHAR U
ENCODING 85
SWIDTH 693 0
DWIDTH 13 0
BBX 12 13 1 0
BITMAP
3030
3030
3030
3030
6020
6060
6060
6060
c040
c0c0
c080
6180
3e00
ENDCHAR
STARTCHAR V
ENCODING 86
SWIDTH 687 0
DWIDTH 12 0
BBX 10 13 3 0
BITMAP
c0c0
c0c0
c180
c180
c300
c300
c600
c600
cc00
4800
7800
7000
6000
ENDCHAR
STARTCHAR W
ENCODING 87
SWIDTH 886 0
DWIDTH 16 0
BBX 15 13 2 0
BITMAP
c186
c186
c38c
c38c
c598
cd98
c9b0
d1a0
f1e0
e1c0
c180
c180
8100
ENDCHAR
STARTCHAR X
ENCODING 88
SWIDTH 620 0
DWIDTH 12 0
BBX 11 13 1 0
BITMAP
3060
3060
18c0
1980
0d00
0e00
0e00
1e00
3300
6300
6180
c180
c180
ENDCHAR
STARTCHAR Y
ENCODING 89
SWIDTH 608 0
DWIDTH 11 0
BBX 11 13 2 0
BITMAP
c060
c060
60c0
6180
3300
3600
1c00
1800
1800
3000
3000
3000
3000
ENDCHAR
STARTCHAR Z
ENCODING 90
SWIDTH 578 0
DWIDTH 11 0
BBX 11 13 1 0
BITMAP
3fe0
0060
00e0
01c0
0380
0700
0e00
1c00
3800
7000
e000
c000
ff80
ENDCHAR
STARTCHAR bracketleft
ENCODING 91
SWIDTH 325 0
DWIDTH 6 0
BBX 6 16 1 -2
BITMAP
1c
18
18
18
30
30
30
30
60
60
60
60
c0
c0
c0
e0
ENDCHAR
STARTCHAR backslash
ENCODING 92
SWIDTH 482 0
DWIDTH 9 0
BBX 7 16 1 -2
BITMAP
c0
c0
60
60
60
30
30
30
18
18
18
0c
0c
0c
06
06
ENDCHAR
STARTCHAR bracketright
ENCODING 93
SWIDTH 325 0
DWIDTH 6 0
BBX 6 16 0 -2
BITMAP
1c
0c
0c
0c
18
18
18
18
30
30
30
30
60
60
60
e0
ENDCHAR
STARTCHAR asciicircum
ENCODING 94
SWIDTH 633 0
DWIDTH 12 0
BBX 8 10 2 2
BITMAP
06
0e
1a
12
32
62
63
c3
c3
c3
ENDCHAR
STARTCHAR underscore
ENCODING 95
SWIDTH 500 0
DWIDTH 12 0
BBX 10 1 1 -1
BITMAP
ffc0
ENDCHAR
STARTCHAR grave
ENCODING 96
SWIDTH 572 0
DWIDTH 11 0
BBX 4 2 5 11
BITMAP
e0
30
ENDCHAR
STARTCHAR a
ENCODING 97
SWIDTH 608 0
DWIDTH 11 0
BBX 10 10 1 0
BITMAP
0fc0
31c0
60c0
6180
c180
c380
c580
cb00
fb00
7300
ENDCHAR
STARTCHAR b
ENCODING 98
SWIDTH 608 0
DWIDTH 11 0
BBX 10 14 1 0
BITMAP
1800
1800
1800
1800
3380
37c0
34c0
68c0
70c0
60c0
6180
c180
e300
fc00
ENDCHAR
STARTCHAR c
ENCODING 99
SWIDTH 503 0
DWIDTH 9 0
BBX 8 10 1 0
BITMAP
0e
33
60
60
c0
c0
c0
c0
e4
78
ENDCHAR
STARTCHAR d
ENCODING 100
SWIDTH 608 0
DWIDTH 11 0
BBX 11 14 1 0
BITMAP
0060
0060
0060
0060
0fc0
31c0
60c0
6180
c180
c380
c580
cb00
fb00
7300
ENDCHAR
STARTCHAR e
ENCODING 101
SWIDTH 529 0
DWIDTH 10 0
BBX 8 10 1 0
BITMAP
0e
33
63
63
c6
f8
c0
c0
e2
7c
ENDCHAR
STARTCHAR f
ENCODING 102
SWIDTH 383 0
DWIDTH 7 0
BBX 9 17 0 -3
BITMAP
0380
0400
0c00
0c00
3f00
1800
1800
3000
3000
3000
3000
6000
6000
6000
c000
c000
c000
ENDCHAR
STARTCHAR g
ENCODING 103
SWIDTH 608 0
DWIDTH 11 0
BBX 11 13 0 -3
BITMAP
07e0
18e0
3060
30c0
60c0
61c0
62c0
6580
7d80
3980
0100
c300
7c00
ENDCHAR
STARTCHAR h
ENCODING 104
SWIDTH 620 0
DWIDTH 12 0
BBX 10 14 1 0
BITMAP
1800
1800
1800
1800
3380
37c0
34c0
68c0
7180
6180
6180
c300
c300
c300
ENDCHAR
STARTCHAR i
ENCODING 105
SWIDTH 289 0
DWIDTH 6 0
BBX 6 14 1 0
BITMAP
0c
18
00
00
30
30
30
60
60
60
60
c0
c0
c0
ENDCHAR
STARTCHAR j
ENCODING 106
SWIDTH 325 0
DWIDTH 6 0
BBX 10 17 -3 -3
BITMAP
00c0
0180
0000
0000
0300
0300
0300
0600
0600
0600
0600
0c00
0c00
0c00
0c00
1800
f000
ENDCHAR
STARTCHAR k
ENCODING 107
SWIDTH 572 0
DWIDTH 10 0
BBX 9 14 1 0
BITMAP
1800
1800
1800
1800
3180
3180
3300
6400
7800
7800
6c00
ce00
c700
c380
ENDCHAR
STARTCHAR l
ENCODING 108
SWIDTH 289 0
DWIDTH 6 0
BBX 5 14 1 0
BITMAP
18
18
18
18
30
30
30
60
60
60
60
c0
c0
c0
ENDCHAR
STARTCHAR m
ENCODING 109
SWIDTH 934 0
DWIDTH 18 0
BBX 16 10 1 0
BITMAP
338e
37df
34d3
68e3
71c6
6186
6186
c30c
c30c
c30c
ENDCHAR
STARTCHAR n
ENCODING 110
SWIDTH 620 0
DWIDTH 12 0
BBX 10 10 1 0
BITMAP
3380
37c0
34c0
68c0
7180
6180
6180
c300
c300
c300
ENDCHAR
STARTCHAR o
ENCODING 111
SWIDTH 566 0
DWIDTH 11 0
BBX 9 10 1 0
BITMAP
0f00
3380
6180
6180
c180
c180
c300
c300
e600
7800
ENDCHAR
STARTCHAR p
ENCODING 112
SWIDTH 608 0
DWIDTH 11 0
BBX 11 13 0 -3
BITMAP
19c0
1be0
1a60
3460
3860
3060
30c0
60c0
7180
7e00
c000
c000
c000
ENDCHAR
STARTCHAR q
ENCODING 113
SWIDTH 608 0
DWIDTH 11 0
BBX 10 13 1 -3
BITMAP
0fc0
31c0
60c0
6180
c180
c380
c580
cb00
fb00
7300
0600
0600
0600
ENDCHAR
STARTCHAR r
ENCODING 114
SWIDTH 478 0
DWIDTH 9 0
BBX 8 10 1 0
BITMAP
33
37
34
68
70
60
60
c0
c0
c0
ENDCHAR
STARTCHAR s
ENCODING 115
SWIDTH 489 0
DWIDTH 9 0
BBX 8 10 1 0
BITMAP
1e
23
60
70
38
1c
0e
06
c4
78
ENDCHAR
STARTCHAR t
ENCODING 116
SWIDTH 383 0
DWIDTH 7 0
BBX 6 12 1 0
BITMAP
10
30
7c
30
60
60
60
60
c0
c0
c0
70
ENDCHAR
STARTCHAR u
ENCODING 117
SWIDTH 620 0
DWIDTH 11 0
BBX 10 10 1 0
BITMAP
30c0
30c0
30c0
6180
6180
6380
c580
cb00
fb00
7300
ENDCHAR
STARTCHAR v
ENCODING 118
SWIDTH 545 0
DWIDTH 10 0
BBX 8 10 2 0
BITMAP
c3
c3
c3
c2
c6
c4
c8
d0
e0
c0
ENDCHAR
STARTCHAR w
ENCODING 119
SWIDTH 795 0
DWIDTH 15 0
BBX 13 10 2 0
BITMAP
c018
c618
c630
ce30
ce60
d640
d6c0
e680
e700
c600
ENDCHAR
STARTCHAR x
ENCODING 120
SWIDTH 541 0
DWIDTH 10 0
BBX 9 10 1 0
BITMAP
3180
3180
1900
1a00
0c00
1800
2c00
4c00
c600
c600
ENDCHAR
STARTCHAR y
ENCODING 121
SWIDTH 548 0
DWIDTH 10 0
BBX 10 13 0 -3
BITMAP
30c0
30c0
30c0
3080
3180
3100
3200
3400
3800
3000
6000
c000
c000
ENDCHAR
STARTCHAR z
ENCODING 122
SWIDTH 536 0
DWIDTH 10 0
BBX 9 10 1 0
BITMAP
7f80
0380
0700
0e00
1c00
1800
3800
7000
e000
ff00
ENDCHAR
STARTCHAR braceleft
ENCODING 123
SWIDTH 325 0
DWIDTH 6 0
BBX 7 16 1 -2
BITMAP
06
08
18
18
18
18
10
20
c0
20
60
60
c0
c0
c0
60
ENDCHAR
STARTCHAR bar
ENCODING 124
SWIDTH 233 0
DWIDTH 5 0
BBX 4 16 1 -2
BITMAP
30
30
30
30
30
60
60
60
60
60
60
c0
c0
c0
c0
c0
ENDCHAR
STARTCHAR braceright
ENCODING 125
SWIDTH 325 0
DWIDTH 6 0
BBX 7 16 -1 -2
BITMAP
0c
06
06
06
0c
0c
08
06
08
10
30
30
30
30
20
c0
ENDCHAR
STARTCHAR asciitilde
ENCODING 126
SWIDTH 633 0
DWIDTH 12 0
BBX 10 3 2 4
BITMAP
7840
ccc0
8780
ENDCHAR
STARTCHAR nobreakspace
ENCODING 160
SWIDTH 316 0
DWIDTH 5 0
BBX 1 1 0 0
BITMAP
00
ENDCHAR
STARTCHAR Aogonek
ENCODING 161
SWIDTH 687 0
DWIDTH 12 0
BBX 10 16 1 -3
BITMAP
0300
0300
0500
0d80
0980
1980
1180
3180
3fc0
60c0
60c0
c0c0
c0c0
0c00
1800
0e00
ENDCHAR
STARTCHAR breve
ENCODING 162
SWIDTH 566 0
DWIDTH 11 0
BBX 5 2 4 11
BITMAP
88
70
ENDCHAR
STARTCHAR Lstroke
ENCODING 163
SWIDTH 545 0
DWIDTH 10 0
BBX 9 13 1 0
BITMAP
1800
1800
1800
1800
3000
3c00
f000
3000
3000
6000
6000
6000
7f80
ENDCHAR
STARTCHAR currency
ENCODING 164
SWIDTH 633 0
DWIDTH 11 0
BBX 13 11 0 1
BITMAP
4008
2390
1ce0
1860
1860
3060
30c0
30c0
39c0
4e20
8010
ENDCHAR
STARTCHAR Lcaron
ENCODING 165
SWIDTH 545 0
DWIDTH 10 0
BBX 8 14 2 0
BITMAP
03
33
32
34
30
60
60
60
60
60
c0
c0
c0
ff
ENDCHAR
STARTCHAR Sacute
ENCODING 166
SWIDTH 553 0
DWIDTH 10 0
BBX 9 16 1 0
BITMAP
0380
0600
0000
1f00
3980
3000
3000
1800
1c00
0e00
0600
0300
0300
0300
c600
7c00
ENDCHAR
STARTCHAR section
ENCODING 167
SWIDTH 633 0
DWIDTH 12 0
BBX 10 15 1 -2
BITMAP
0f80
10c0
3000
3800
1e00
2700
6380
7180
3900
1e00
0700
0300
0300
c600
7c00
ENDCHAR
STARTCHAR diaeresis
ENCODING 168
SWIDTH 566 0
DWIDTH 11 0
BBX 4 2 5 11
BITMAP
90
90
ENDCHAR
STARTCHAR Scaron
ENCODING 169
SWIDTH 553 0
DWIDTH 10 0
BBX 9 16 1 0
BITMAP
0b00
0600
0000
1f00
3980
3000
3000
1800
1c00
0e00
0600
0300
0300
0300
c600
7c00
ENDCHAR
STARTCHAR Scedilla
ENCODING 170
SWIDTH 553 0
DWIDTH 10 0
BBX 9 16 1 -3
BITMAP
1f00
3980
3000
3000
1800
1c00
0e00
0600
0300
0300
0300
c600
7c00
0c00
0600
1c00
ENDCHAR
STARTCHAR Tcaron
ENCODING 171
SWIDTH 623 0
DWIDTH 12 0
BBX 12 16 1 0
BITMAP
0580
0300
0000
fff0
0600
0600
0600
0c00
0c00
0c00
0c00
0c00
1800
1800
1800
1800
ENDCHAR
STARTCHAR Zacute
ENCODING 172
SWIDTH 578 0
DWIDTH 11 0
BBX 11 16 1 0
BITMAP
01c0
0300
0000
3fe0
0060
00e0
01c0
0380
0700
0e00
1c00
3800
7000
e000
c000
ff80
ENDCHAR
STARTCHAR hyphen
ENCODING 173
SWIDTH 313 0
DWIDTH 6 0
BBX 5 1 1 5
BITMAP
f8
ENDCHAR
STARTCHAR Zcaron
ENCODING 174
SWIDTH 578 0
DWIDTH 11 0
BBX 11 16 1 0
BITMAP
0580
0300
0000
3fe0
0060
00e0
01c0
0380
0700
0e00
1c00
3800
7000
e000
c000
ff80
ENDCHAR
STARTCHAR Zabovedot
ENCODING 175
SWIDTH 578 0
DWIDTH 11 0
BBX 11 16 1 0
BITMAP
0300
0300
0000
3fe0
0060
00e0
01c0
0380
0700
0e00
1c00
3800
7000
e000
c000
ff80
ENDCHAR
STARTCHAR degree
ENCODING 176
SWIDTH 269 0
DWIDTH 5 0
BBX 4 4 1 9
BITMAP
60
90
90
60
ENDCHAR
STARTCHAR aogonek
ENCODING 177
SWIDTH 608 0
DWIDTH 11 0
BBX 10 13 1 -3
BITMAP
0fc0
31c0
60c0
6180
c180
c380
c580
cb00
fb00
7300
0c00
1800
0e00
ENDCHAR
STARTCHAR ogonek
ENCODING 178
SWIDTH 566 0
DWIDTH 11 0
BBX 4 3 3 -3
BITMAP
60
c0
70
ENDCHAR
STARTCHAR lstroke
ENCODING 179
SWIDTH 289 0
DWIDTH 6 0
BBX 7 14 0 0
BITMAP
0c
0c
0c
0c
18
18
1e
f0
30
30
30
60
60
60
ENDCHAR
STARTCHAR acute
ENCODING 180
SWIDTH 566 0
DWIDTH 11 0
BBX 4 2 5 11
BITMAP
70
c0
ENDCHAR
STARTCHAR lcaron
ENCODING 181
SWIDTH 555 0
DWIDTH 10 0
BBX 9 15 1 0
BITMAP
0180
1980
1900
1a00
1800
3000
3000
3000
6000
6000
6000
6000
c000
c000
c000
ENDCHAR
STARTCHAR sacute
ENCODING 182
SWIDTH 489 0
DWIDTH 9 0
BBX 9 13 1 0
BITMAP
0380
0600
0000
1e00
2300
6000
7000
3800
1c00
0e00
0600
c400
7800
ENDCHAR
STARTCHAR caron
ENCODING 183
SWIDTH 568 0
DWIDTH 11 0
BBX 4 2 5 11
BITMAP
b0
60
ENDCHAR
STARTCHAR cedilla
ENCODING 184
SWIDTH 566 0
DWIDTH 11 0
BBX 4 3 2 -3
BITMAP
60
30
e0
ENDCHAR
STARTCHAR scaron
ENCODING 185
SWIDTH 489 0
DWIDTH 9 0
BBX 8 13 1 0
BITMAP
0b
06
00
1e
23
60
70
38
1c
0e
06
c4
78
ENDCHAR
STARTCHAR scedilla
ENCODING 186
SWIDTH 489 0
DWIDTH 9 0
BBX 8 13 1 -3
BITMAP
1e
23
60
70
38
1c
0e
06
c4
78
18
0c
38
ENDCHAR
STARTCHAR tcaron
ENCODING 187
SWIDTH 500 0
DWIDTH 9 0
BBX 8 15 1 0
BITMAP
03
03
02
14
30
7c
30
60
60
60
60
c0
c0
c0
70
ENDCHAR
STARTCHAR zacute
ENCODING 188
SWIDTH 536 0
DWIDTH 10 0
BBX 9 13 1 0
BITMAP
0380
0600
0000
7f80
0380
0700
0e00
1c00
1800
3800
7000
e000
ff00
ENDCHAR
STARTCHAR doubleacute
ENCODING 189
SWIDTH 566 0
DWIDTH 11 0
BBX 5 2 5 11
BITMAP
d8
90
ENDCHAR
STARTCHAR zcaron
ENCODING 190
SWIDTH 536 0
DWIDTH 10 0
BBX 9 13 1 0
BITMAP
0b00
0600
0000
7f80
0380
0700
0e00
1c00
1800
3800
7000
e000
ff00
ENDCHAR
STARTCHAR zabovedot
ENCODING 191
SWIDTH 536 0
DWIDTH 10 0
BBX 9 13 1 0
BITMAP
0600
0600
0000
7f80
0380
0700
0e00
1c00
1800
3800
7000
e000
ff00
ENDCHAR
STARTCHAR Racute
ENCODING 192
SWIDTH 632 0
DWIDTH 12 0
BBX 10 16 2 0
BITMAP
01c0
0300
0000
3f80
31c0
30c0
30c0
6180
6300
7c00
6600
6600
c300
c300
c180
c1c0
ENDCHAR
STARTCHAR Aacute
ENCODING 193
SWIDTH 687 0
DWIDTH 12 0
BBX 10 16 1 0
BITMAP
01c0
0300
0000
0300
0300
0500
0d80
0980
1980
1180
3180
3fc0
60c0
60c0
c0c0
c0c0
ENDCHAR
STARTCHAR Acircumflex
ENCODING 194
SWIDTH 687 0
DWIDTH 12 0
BBX 10 16 1 0
BITMAP
0300
0580
0000
0300
0300
0500
0d80
0980
1980
1180
3180
3fc0
60c0
60c0
c0c0
c0c0
ENDCHAR
STARTCHAR Abreve
ENCODING 195
SWIDTH 687 0
DWIDTH 12 0
BBX 10 16 1 0
BITMAP
0880
0700
0000
0300
0300
0500
0d80
0980
1980
1180
3180
3fc0
60c0
60c0
c0c0
c0c0
ENDCHAR
STARTCHAR Adiaeresis
ENCODING 196
SWIDTH 687 0
DWIDTH 12 0
BBX 10 16 1 0
BITMAP
0480
0480
0000
0300
0300
0500
0d80
0980
1980
1180
3180
3fc0
60c0
60c0
c0c0
c0c0
ENDCHAR
STARTCHAR Lacute
ENCODING 197
SWIDTH 545 0
DWIDTH 10 0
BBX 8 16 2 0
BITMAP
0e
18
00
30
30
30
30
60
60
60
60
60
c0
c0
c0
ff
ENDCHAR
STARTCHAR Cacute
ENCODING 198
SWIDTH 679 0
DWIDTH 12 0
BBX 12 16 1 0
BITMAP
00e0
0180
0000
07e0
1830
3000
6000
6000
c000
c000
c000
c000
c000
6000
7040
1f80
ENDCHAR
STARTCHAR Ccedilla
ENCODING 199
SWIDTH 679 0
DWIDTH 12 0
BBX 12 16 1 -3
BITMAP
07e0
1830
3000
6000
6000
c000
c000
c000
c000
c000
6000
7040
1f80
0c00
0600
1c00
ENDCHAR
STARTCHAR Ccaron
ENCODING 200
SWIDTH 679 0
DWIDTH 12 0
BBX 12 16 1 0
BITMAP
02c0
0180
0000
07e0
1830
3000
6000
6000
c000
c000
c000
c000
c000
6000
7040
1f80
ENDCHAR
STARTCHAR Eacute
ENCODING 201
SWIDTH 547 0
DWIDTH 10 0
BBX 9 16 2 0
BITMAP
0700
0c00
0000
3f80
3000
3000
3000
6000
6000
7e00
6000
6000
c000
c000
c000
fe00
ENDCHAR
STARTCHAR Eogonek
ENCODING 202
SWIDTH 547 0
DWIDTH 10 0
BBX 9 16 2 -3
BITMAP
3f80
3000
3000
3000
6000
6000
7e00
6000
6000
c000
c000
c000
fe00
0c00
1800
0e00
ENDCHAR
STARTCHAR Ediaeresis
ENCODING 203
SWIDTH 547 0
DWIDTH 10 0
BBX 9 16 2 0
BITMAP
0900
0900
0000
3f80
3000
3000
3000
6000
6000
7e00
6000
6000
c000
c000
c000
fe00
ENDCHAR
STARTCHAR Ecaron
ENCODING 204
SWIDTH 547 0
DWIDTH 10 0
BBX 9 16 2 0
BITMAP
0b00
0600
0000
3f80
3000
3000
3000
6000
6000
7e00
6000
6000
c000
c000
c000
fe00
ENDCHAR
STARTCHAR Iacute
ENCODING 205
SWIDTH 289 0
DWIDTH 6 0
BBX 6 16 1 0
BITMAP
1c
30
00
30
30
30
30
60
60
60
60
60
c0
c0
c0
c0
ENDCHAR
STARTCHAR Icircumflex
ENCODING 206
SWIDTH 289 0
DWIDTH 6 0
BBX 5 16 1 0
BITMAP
30
58
00
30
30
30
30
60
60
60
60
60
c0
c0
c0
c0
ENDCHAR
STARTCHAR Dcaron
ENCODING 207
SWIDTH 743 0
DWIDTH 14 0
BBX 12 16 2 0
BITMAP
0580
0300
0000
3f80
30e0
3060
3030
6030
6030
6030
6030
6060
c060
c0c0
c180
fe00
ENDCHAR
STARTCHAR Dstroke
ENCODING 208
SWIDTH 743 0
DWIDTH 14 0
BBX 13 13 1 0
BITMAP
1fc0
1870
1830
1818
3018
3018
fe18
3018
3030
6030
6060
60c0
7f00
ENDCHAR
STARTCHAR Nacute
ENCODING 209
SWIDTH 741 0
DWIDTH 14 0
BBX 11 16 2 0
BITMAP
01c0
0300
0000
3820
3820
2c20
2c20
2c60
6640
4640
4340
4340
c380
8180
8180
8180
ENDCHAR
STARTCHAR Ncaron
ENCODING 210
SWIDTH 741 0
DWIDTH 14 0
BBX 11 16 2 0
BITMAP
0580
0300
0000
3820
3820
2c20
2c20
2c60
6640
4640
4340
4340
c380
8180
8180
8180
ENDCHAR
STARTCHAR Oacute
ENCODING 211
SWIDTH 777 0
DWIDTH 14 0
BBX 13 16 1 0
BITMAP
01c0
0300
0000
07c0
1870
3030
6018
6018
c018
c018
c018
c030
c030
6060
70c0
1f00
ENDCHAR
STARTCHAR Ocircumflex
ENCODING 212
SWIDTH 777 0
DWIDTH 14 0
BBX 13 16 1 0
BITMAP
0180
02c0
0000
07c0
1870
3030
6018
6018
c018
c018
c018
c030
c030
6060
70c0
1f00
ENDCHAR
STARTCHAR Odoubleacute
ENCODING 213
SWIDTH 777 0
DWIDTH 14 0
BBX 13 16 1 0
BITMAP
0360
0240
0000
07c0
1870
3030
6018
6018
c018
c018
c018
c030
c030
6060
70c0
1f00
ENDCHAR
STARTCHAR Odiaeresis
ENCODING 214
SWIDTH 777 0
DWIDTH 14 0
BBX 13 16 1 0
BITMAP
0480
0480
0000
07c0
1870
3030
6018
6018
c018
c018
c018
c030
c030
6060
70c0
1f00
ENDCHAR
STARTCHAR multiply
ENCODING 215
SWIDTH 633 0
DWIDTH 12 0
BBX 8 9 3 1
BITMAP
61
22
34
18
18
18
2c
44
86
ENDCHAR
STARTCHAR Rcaron
ENCODING 216
SWIDTH 632 0
DWIDTH 12 0
BBX 10 16 2 0
BITMAP
0580
0300
0000
3f80
31c0
30c0
30c0
6180
6300
7c00
6600
6600
c300
c300
c180
c1c0
ENDCHAR
STARTCHAR Uring
ENCODING 217
SWIDTH 693 0
DWIDTH 13 0
BBX 12 17 1 0
BITMAP
0380
04c0
0380
0000
3030
3030
3030
3030
6020
6060
6060
6060
c040
c0c0
c080
6180
3e00
ENDCHAR
STARTCHAR Uacute
ENCODING 218
SWIDTH 693 0
DWIDTH 13 0
BBX 12 16 1 0
BITMAP
0700
0180
0000
3030
3030
3030
3030
6020
6060
6060
6060
c040
c0c0
c080
6180
3e00
ENDCHAR
STARTCHAR Udoubleacute
ENCODING 219
SWIDTH 693 0
DWIDTH 13 0
BBX 12 16 1 0
BITMAP
0360
0240
0000
3030
3030
3030
3030
6020
6060
6060
6060
c040
c0c0
c080
6180
3e00
ENDCHAR
STARTCHAR Udiaeresis
ENCODING 220
SWIDTH 693 0
DWIDTH 13 0
BBX 12 16 1 0
BITMAP
0480
0480
0000
3030
3030
3030
3030
6020
6060
6060
6060
c040
c0c0
c080
6180
3e00
ENDCHAR
STARTCHAR Yacute
ENCODING 221
SWIDTH 608 0
DWIDTH 11 0
BBX 11 16 2 0
BITMAP
0380
0600
0000
c060
c060
60c0
6180
3300
3600
1c00
1800
1800
3000
3000
3000
3000
ENDCHAR
STARTCHAR Tcedilla
ENCODING 222
SWIDTH 623 0
DWIDTH 12 0
BBX 12 16 1 -3
BITMAP
fff0
0600
0600
0600
0c00
0c00
0c00
0c00
0c00
1800
1800
1800
1800
0600
0300
0e00
ENDCHAR
STARTCHAR ssharp
ENCODING 223
SWIDTH 595 0
DWIDTH 11 0
BBX 10 16 1 -2
BITMAP
0780
08c0
18c0
1880
1900
3200
3200
3300
3380
61c0
60c0
6040
60c0
c780
c000
c000
ENDCHAR
STARTCHAR racute
ENCODING 224
SWIDTH 478 0
DWIDTH 9 0
BBX 9 13 1 0
BITMAP
0380
0600
0000
3300
3700
3400
6800
7000
6000
6000
c000
c000
c000
ENDCHAR
STARTCHAR aacute
ENCODING 225
SWIDTH 608 0
DWIDTH 11 0
BBX 10 13 1 0
BITMAP
0380
0600
0000
0fc0
31c0
60c0
6180
c180
c380
c580
cb00
fb00
7300
ENDCHAR
STARTCHAR acircumflex
ENCODING 226
SWIDTH 608 0
DWIDTH 11 0
BBX 10 13 1 0
BITMAP
0300
0580
0000
0fc0
31c0
60c0
6180
c180
c380
c580
cb00
fb00
7300
ENDCHAR
STARTCHAR abreve
ENCODING 227
SWIDTH 608 0
DWIDTH 11 0
BBX 10 13 1 0
BITMAP
0880
0700
0000
0fc0
31c0
60c0
6180
c180
c380
c580
cb00
fb00
7300
ENDCHAR
STARTCHAR adiaeresis
ENCODING 228
SWIDTH 608 0
DWIDTH 11 0
BBX 10 13 1 0
BITMAP
0480
0480
0000
0fc0
31c0
60c0
6180
c180
c380
c580
cb00
fb00
7300
ENDCHAR
STARTCHAR lacute
ENCODING 229
SWIDTH 289 0
DWIDTH 6 0
BBX 8 17 1 0
BITMAP
07
0c
00
18
18
18
18
30
30
30
60
60
60
60
c0
c0
c0
ENDCHAR
STARTCHAR cacute
ENCODING 230
SWIDTH 503 0
DWIDTH 9 0
BBX 9 13 1 0
BITMAP
0380
0600
0000
0e00
3300
6000
6000
c000
c000
c000
c000
e400
7800
ENDCHAR
STARTCHAR ccedilla
ENCODING 231
SWIDTH 503 0
DWIDTH 9 0
BBX 8 13 1 -3
BITMAP
0e
33
60
60
c0
c0
c0
c0
e4
78
30
18
70
ENDCHAR
STARTCHAR ccaron
ENCODING 232
SWIDTH 503 0
DWIDTH 9 0
BBX 8 13 1 0
BITMAP
0b
06
00
0e
33
60
60
c0
c0
c0
c0
e4
78
ENDCHAR
STARTCHAR eacute
ENCODING 233
SWIDTH 529 0
DWIDTH 10 0
BBX 8 13 1 0
BITMAP
07
0c
00
0e
33
63
63
c6
f8
c0
c0
e2
7c
ENDCHAR
STARTCHAR eogonek
ENCODING 234
SWIDTH 529 0
DWIDTH 10 0
BBX 8 13 1 -3
BITMAP
0e
33
63
63
c6
f8
c0
c0
e2
7c
18
30
1c
ENDCHAR
STARTCHAR ediaeresis
ENCODING 235
SWIDTH 529 0
DWIDTH 10 0
BBX 8 13 1 0
BITMAP
12
12
00
0e
33
63
63
c6
f8
c0
c0
e2
7c
ENDCHAR
STARTCHAR ecaron
ENCODING 236
SWIDTH 529 0
DWIDTH 10 0
BBX 8 13 1 0
BITMAP
0b
06
00
0e
33
63
63
c6
f8
c0
c0
e2
7c
ENDCHAR
STARTCHAR iacute
ENCODING 237
SWIDTH 289 0
DWIDTH 6 0
BBX 6 13 1 0
BITMAP
1c
30
00
30
30
30
60
60
60
60
c0
c0
c0
ENDCHAR
STARTCHAR icircumflex
ENCODING 238
SWIDTH 289 0
DWIDTH 6 0
BBX 5 13 1 0
BITMAP
30
58
00
30
30
30
60
60
60
60
c0
c0
c0
ENDCHAR
STARTCHAR dcaron
ENCODING 239
SWIDTH 833 0
DWIDTH 15 0
BBX 15 15 1 0
BITMAP
0006
0066
0064
0068
0060
0fc0
31c0
60c0
6180
c180
c380
c580
cb00
fb00
7300
ENDCHAR
STARTCHAR dstroke
ENCODING 240
SWIDTH 777 0
DWIDTH 14 0
BBX 14 14 1 0
BITMAP
0060
03fc
0060
0060
0fc0
31c0
60c0
6180
c180
c380
c580
cb00
fb00
7300
ENDCHAR
STARTCHAR nacute
ENCODING 241
SWIDTH 620 0
DWIDTH 12 0
BBX 10 13 1 0
BITMAP
01c0
0300
0000
3380
37c0
34c0
68c0
7180
6180
6180
c300
c300
c300
ENDCHAR
STARTCHAR ncaron
ENCODING 242
SWIDTH 620 0
DWIDTH 12 0
BBX 10 13 1 0
BITMAP
0580
0300
0000
3380
37c0
34c0
68c0
7180
6180
6180
c300
c300
c300
ENDCHAR
STARTCHAR oacute
ENCODING 243
SWIDTH 566 0
DWIDTH 11 0
BBX 9 13 1 0
BITMAP
0700
0c00
0000
0f00
3380
6180
6180
c180
c180
c300
c300
e600
7800
ENDCHAR
STARTCHAR ocircumflex
ENCODING 244
SWIDTH 566 0
DWIDTH 11 0
BBX 9 13 1 0
BITMAP
0600
0b00
0000
0f00
3380
6180
6180
c180
c180
c300
c300
e600
7800
ENDCHAR
STARTCHAR odoubleacute
ENCODING 245
SWIDTH 566 0
DWIDTH 11 0
BBX 9 13 1 0
BITMAP
0d80
0900
0000
0f00
3380
6180
6180
c180
c180
c300
c300
e600
7800
ENDCHAR
STARTCHAR odiaeresis
ENCODING 246
SWIDTH 566 0
DWIDTH 11 0
BBX 9 13 1 0
BITMAP
0900
0900
0000
0f00
3380
6180
6180
c180
c180
c300
c300
e600
7800
ENDCHAR
STARTCHAR division
ENCODING 247
SWIDTH 633 0
DWIDTH 12 0
BBX 9 9 2 1
BITMAP
0400
0400
0000
0000
ff80
0000
0000
1000
1000
ENDCHAR
STARTCHAR rcaron
ENCODING 248
SWIDTH 478 0
DWIDTH 9 0
BBX 8 13 1 0
BITMAP
0b
06
00
33
37
34
68
70
60
60
c0
c0
c0
ENDCHAR
STARTCHAR uring
ENCODING 249
SWIDTH 620 0
DWIDTH 11 0
BBX 10 14 1 0
BITMAP
0700
0980
0700
0000
30c0
30c0
30c0
6180
6180
6380
c580
cb00
fb00
7300
ENDCHAR
STARTCHAR uacute
ENCODING 250
SWIDTH 620 0
DWIDTH 11 0
BBX 10 13 1 0
BITMAP
0380
0600
0000
30c0
30c0
30c0
6180
6180
6380
c580
cb00
fb00
7300
ENDCHAR
STARTCHAR udoubleacute
ENCODING 251
SWIDTH 620 0
DWIDTH 11 0
BBX 10 13 1 0
BITMAP
06c0
0480
0000
30c0
30c0
30c0
6180
6180
6380
c580
cb00
fb00
7300
ENDCHAR
STARTCHAR udiaeresis
ENCODING 252
SWIDTH 620 0
DWIDTH 11 0
BBX 10 13 1 0
BITMAP
0900
0900
0000
30c0
30c0
30c0
6180
6180
6380
c580
cb00
fb00
7300
ENDCHAR
STARTCHAR yacute
ENCODING 253
SWIDTH 548 0
DWIDTH 10 0
BBX 10 16 0 -3
BITMAP
0380
0600
0000
30c0
30c0
30c0
3080
3180
3100
3200
3400
3800
3000
6000
c000
c000
ENDCHAR
STARTCHAR tcedilla
ENCODING 254
SWIDTH 383 0
DWIDTH 7 0
BBX 6 15 1 -3
BITMAP
10
30
7c
30
60
60
60
60
c0
c0
c0
70
30
18
70
ENDCHAR
STARTCHAR abovedot
ENCODING 255
SWIDTH 566 0
DWIDTH 11 0
BBX 2 2 6 11
BITMAP
c0
c0
ENDCHAR
ENDFONT
